<?xml version="1.0" ?><svg id="Layer_1" style="enable-background:new 0 0 128 128;" version="1.1" viewBox="0 0 128 128" xml:space="preserve" xmlns="http://www.w3.org/2000/svg" xmlns:xlink="http://www.w3.org/1999/xlink"><style type="text/css">
	.st0{fill:none;stroke:#1D1952;stroke-width:4;stroke-linecap:round;stroke-miterlimit:10;}
	.st1{fill:#F73959;}
	.st2{opacity:0.5;fill:#C02344;}
	.st3{fill:none;stroke:#FFFFFF;stroke-width:4;stroke-linecap:round;stroke-linejoin:round;stroke-miterlimit:10;}
	.st4{fill:#F95F80;}
	.st5{fill:#FFFFFF;}
	.st6{fill:#1D1952;}
	.st7{fill:#EF8FA9;}
	.st8{fill:none;stroke:#AAAAE5;stroke-width:4;stroke-linecap:round;stroke-miterlimit:10;}
	.st9{fill:#AAAAE5;}
	.st10{fill:#FFCE00;}
	.st11{fill:#8E072B;}
	.st12{opacity:0.5;fill:#F73959;}
	.st13{fill:none;stroke:#C02344;stroke-width:4;stroke-linecap:round;stroke-linejoin:round;stroke-miterlimit:10;}
	.st14{fill:none;stroke:#FFAA00;stroke-width:4;stroke-linecap:round;stroke-linejoin:round;stroke-miterlimit:10;}
	.st15{fill:#FFAA00;}
	.st16{fill:none;stroke:#FFFFFF;stroke-width:3;stroke-linecap:round;stroke-linejoin:round;stroke-miterlimit:10;}
	.st17{fill:none;stroke:#1D1952;stroke-width:3;stroke-linecap:round;stroke-miterlimit:10;}
	.st18{fill:none;stroke:#C02344;stroke-width:6;stroke-linecap:round;stroke-linejoin:round;stroke-miterlimit:10;}
	.st19{fill:none;stroke:#AAAAE5;stroke-width:4;stroke-linecap:round;stroke-linejoin:round;stroke-miterlimit:10;}
	.st20{fill:#E87498;}
	.st21{fill:none;stroke:#1D1952;stroke-width:4;stroke-miterlimit:10;}
	.st22{fill:none;stroke:#FFAA00;stroke-width:4;stroke-linecap:round;stroke-miterlimit:10;}
	.st23{fill:#7A61F7;}
	.st24{fill:none;stroke:#FFCE00;stroke-width:4;stroke-linecap:round;stroke-miterlimit:10;}
</style><g><path class="st1" d="M99,30c-23-7-35,10-35,10S52,23,29,30C0,38.8-3,77,22,99c19.1,16.8,33.5,23.7,39.3,26c1.8,0.7,3.7,0.7,5.5,0   c5.8-2.3,20.2-9.2,39.3-26C131,77,128,38.8,99,30z"/><path class="st2" d="M120.3,49.3c2.6,14.2-2.7,30.8-16.3,42.7c-7.9,6.9-15.9,12.6-22.7,16.8c-10.3,6.5-23.3,6.9-34.1,1.3   C38.8,105.8,28.7,99.7,20,92C13.3,86.1,8.7,79.1,6,71.8c2,9.7,7.3,19.5,16,27.2c19.1,16.8,33.5,23.7,39.3,26c1.8,0.7,3.7,0.7,5.5,0   c5.8-2.3,20.2-9.2,39.3-26C121.8,85.1,126.4,64.6,120.3,49.3z"/><g><path class="st0" d="M57.8,88l5.2,1.1c7.6,1.6,40.3,6.6,54.8-15.7"/><path class="st0" d="M57.8,88c-2.5-2.6-1.7-6.5-1.7-6.5"/><line class="st0" x1="49" x2="55.7" y1="86.2" y2="86.3"/><line class="st0" x1="49.3" x2="56.5" y1="89.3" y2="87.5"/><path class="st0" d="M50.9,91.7c3.4-0.5,6.2-1.3,6.9-3.7"/></g><g><path class="st0" d="M75.1,103.7l-5.2,0.8c-7.7,1.1-35.8,4.6-52-18.7"/><path class="st0" d="M75.1,103.7c2.7-2.4,2.1-6.4,2.1-6.4"/><line class="st0" x1="84" x2="77.3" y1="102.4" y2="102.1"/><line class="st0" x1="83.5" x2="76.4" y1="105.5" y2="103.3"/><path class="st0" d="M81.8,107.8c-3.3-0.7-6.1-1.7-6.7-4.1"/></g><path class="st0" d="M38,59.7c0,0,5.7-6.7,14.3,0.4"/><path class="st0" d="M87.3,59.7c0,0-5.7-6.7-14.3,0.4"/><circle class="st4" cx="33" cy="72" r="9"/><circle class="st4" cx="92" cy="72" r="9"/><path class="st0" d="M56.8,69c0,0,4.9,6.3,11.7,0"/><path class="st10" d="M75.4,21.4c0,6.1-4.9,11-11,11s-11-4.9-11-11c0-9.3,11-20.1,11-20.1S75.4,11.7,75.4,21.4z"/><path class="st15" d="M64.4,16.4c0,0-5.9,5.8-5.9,10.8c0,1.9,0.9,3.6,2.3,4.7c1.1,0.4,2.3,0.6,3.6,0.6s2.4-0.2,3.6-0.6   c1.4-1.1,2.3-2.8,2.3-4.7C70.3,21.9,64.4,16.4,64.4,16.4z"/><path class="st3" d="M39.6,36.2c0.4,0,0.8,0,1.2,0"/><path class="st3" d="M25,40.7c1.9-1.2,4.1-2.2,6.4-3"/><path class="st3" d="M95.6,37.4c0.4,0.1,0.7,0.2,1.1,0.3"/><path class="st3" d="M79.6,37.4c2.2-0.7,4.7-1.2,7.6-1.2"/></g></svg>