<?xml version="1.0" ?><svg id="Layer_1" style="enable-background:new 0 0 128 128;" version="1.1" viewBox="0 0 128 128" xml:space="preserve" xmlns="http://www.w3.org/2000/svg" xmlns:xlink="http://www.w3.org/1999/xlink"><style type="text/css">
	.st0{fill:none;stroke:#1D1952;stroke-width:4;stroke-linecap:round;stroke-miterlimit:10;}
	.st1{fill:#F73959;}
	.st2{opacity:0.5;fill:#C02344;}
	.st3{fill:none;stroke:#FFFFFF;stroke-width:4;stroke-linecap:round;stroke-linejoin:round;stroke-miterlimit:10;}
	.st4{fill:#F95F80;}
	.st5{fill:#FFFFFF;}
	.st6{fill:#1D1952;}
	.st7{fill:#EF8FA9;}
	.st8{fill:none;stroke:#AAAAE5;stroke-width:4;stroke-linecap:round;stroke-miterlimit:10;}
	.st9{fill:#AAAAE5;}
	.st10{fill:#FFCE00;}
	.st11{fill:#8E072B;}
	.st12{opacity:0.5;fill:#F73959;}
	.st13{fill:none;stroke:#C02344;stroke-width:4;stroke-linecap:round;stroke-linejoin:round;stroke-miterlimit:10;}
	.st14{fill:none;stroke:#FFAA00;stroke-width:4;stroke-linecap:round;stroke-linejoin:round;stroke-miterlimit:10;}
	.st15{fill:#FFAA00;}
	.st16{fill:none;stroke:#FFFFFF;stroke-width:3;stroke-linecap:round;stroke-linejoin:round;stroke-miterlimit:10;}
	.st17{fill:none;stroke:#1D1952;stroke-width:3;stroke-linecap:round;stroke-miterlimit:10;}
	.st18{fill:none;stroke:#C02344;stroke-width:6;stroke-linecap:round;stroke-linejoin:round;stroke-miterlimit:10;}
	.st19{fill:none;stroke:#AAAAE5;stroke-width:4;stroke-linecap:round;stroke-linejoin:round;stroke-miterlimit:10;}
	.st20{fill:#E87498;}
	.st21{fill:none;stroke:#1D1952;stroke-width:4;stroke-miterlimit:10;}
	.st22{fill:none;stroke:#FFAA00;stroke-width:4;stroke-linecap:round;stroke-miterlimit:10;}
	.st23{fill:#7A61F7;}
	.st24{fill:none;stroke:#FFCE00;stroke-width:4;stroke-linecap:round;stroke-miterlimit:10;}
</style><g><path class="st0" d="M18.1,99.3c-2.6-2.5-4.1-6-4.2-9.9v-7"/><path class="st1" d="M99,27c-23-7-35,10-35,10S52,20,29,27C0,35.8-3,74,22,96c19.1,16.8,33.5,23.7,39.3,26c1.8,0.7,3.7,0.7,5.5,0   c5.8-2.3,20.2-9.2,39.3-26C131,74,128,35.8,99,27z"/><path class="st2" d="M120.3,46.3c2.6,14.2-2.7,30.8-16.3,42.7c-7.9,6.9-15.9,12.6-22.7,16.8c-10.3,6.5-23.3,6.9-34.1,1.3   C38.8,102.8,28.7,96.7,20,89C13.3,83.1,8.7,76.1,6,68.8c2,9.7,7.3,19.5,16,27.2c19.1,16.8,33.5,23.7,39.3,26c1.8,0.7,3.7,0.7,5.5,0   c5.8-2.3,20.2-9.2,39.3-26C121.8,82.1,126.4,61.6,120.3,46.3z"/><path class="st3" d="M98.7,35.4c1.2,0.5,2.4,1,3.4,1.6"/><path class="st3" d="M88.2,33.3c0.9,0,1.9,0.1,2.8,0.2"/><path class="st3" d="M41.7,33.4c1.2,0.1,2.3,0.3,3.4,0.5"/><path class="st3" d="M31.3,34.7c0.7-0.2,1.4-0.4,2.1-0.6"/><g><path class="st0" d="M93.4,103.2l5.3-0.4c7.7-0.5,13.6-7.2,13.1-15v-5.3"/><path class="st0" d="M93.4,103.2c-3.1-1.8-3.4-5.8-3.4-5.8"/><line class="st0" x1="84.4" x2="90.9" y1="103.8" y2="102.1"/><line class="st0" x1="85.6" x2="92" y1="106.7" y2="103"/><path class="st0" d="M87.7,108.6c3.1-1.4,5.6-2.9,5.6-5.4"/></g><g><path class="st0" d="M18.1,99.3c2.6,2.5,6.1,4.1,10,4.1l6,0"/><path class="st0" d="M34,103.3c3-2,3-6,3-6"/><line class="st0" x1="43" x2="36.3" y1="102.3" y2="102.1"/><line class="st0" x1="42" x2="35.3" y1="105.3" y2="103.1"/><path class="st0" d="M40,108.3c-2.3-0.7-4.4-2-6-5"/></g><path class="st0" d="M53,85c0-5,4-9,9-9s9,4,9,9"/><circle class="st5" cx="83.5" cy="62.5" r="10.5"/><circle class="st6" cx="83.5" cy="62.5" r="6.5"/><path class="st18" d="M73,55L73,55c3.9,0,7-3.1,7-7v-1"/><circle class="st5" cx="41.5" cy="62.5" r="10.5"/><circle class="st6" cx="41.5" cy="62.5" r="6.5"/><path class="st18" d="M52,55L52,55c-3.9,0-7-3.1-7-7v-1"/><path class="st19" d="M52,21.5L54.3,11l5.2,12.1c0,0,2.7-5.5,2.5-15.1"/><ellipse class="st8" cx="71" cy="18.4" rx="4.9" ry="3.5" transform="matrix(0.1159 -0.9933 0.9933 0.1159 44.5136 86.7855)"/></g></svg>