<?xml version="1.0" ?><!DOCTYPE svg  PUBLIC '-//W3C//DTD SVG 1.1//EN'  'http://www.w3.org/Graphics/SVG/1.1/DTD/svg11.dtd'><svg height="100%" style="fill-rule:evenodd;clip-rule:evenodd;stroke-linejoin:round;stroke-miterlimit:2;" version="1.1" viewBox="0 0 64 64" width="100%" xml:space="preserve" xmlns="http://www.w3.org/2000/svg" xmlns:serif="http://www.serif.com/" xmlns:xlink="http://www.w3.org/1999/xlink"><g transform="matrix(1,0,0,1,-480,-240)"><g id="reverbnation-apps-platform" transform="matrix(1,0,0,1,480,240)"><rect height="64" style="fill:none;" width="64" x="0" y="0"/><g transform="matrix(1.12657,0,0,1.12657,-544.802,-271.414)"><path d="M511.156,246.598C511.275,246.232 511.615,245.985 512,245.985C512.385,245.985 512.725,246.232 512.844,246.598C514.321,251.144 517.292,260.288 518.087,262.734C518.206,263.1 518.547,263.348 518.931,263.348C521.503,263.348 531.118,263.348 535.898,263.348C536.282,263.348 536.623,263.595 536.742,263.961C536.861,264.327 536.731,264.727 536.419,264.953C532.553,267.762 524.774,273.414 522.693,274.926C522.382,275.152 522.252,275.553 522.371,275.918C523.166,278.364 526.137,287.509 527.614,292.054C527.733,292.42 527.602,292.821 527.291,293.047C526.98,293.273 526.559,293.273 526.248,293.047C522.381,290.238 514.602,284.586 512.522,283.074C512.211,282.848 511.789,282.848 511.478,283.074C509.398,284.586 501.619,290.238 497.752,293.047C497.441,293.273 497.02,293.273 496.709,293.047C496.398,292.821 496.267,292.42 496.386,292.054C497.863,287.509 500.834,278.364 501.629,275.918C501.748,275.553 501.618,275.152 501.307,274.926C499.226,273.414 491.447,267.762 487.581,264.953C487.269,264.727 487.139,264.327 487.258,263.961C487.377,263.595 487.718,263.348 488.102,263.348C492.882,263.348 502.497,263.348 505.069,263.348C505.453,263.348 505.794,263.1 505.913,262.734C506.708,260.288 509.679,251.144 511.156,246.598Z" style="fill:rgb(221,99,110);"/></g><g transform="matrix(1,0,0,1,-480,-240)"><path d="M486.072,265.265C486.11,265.302 486.15,265.337 486.194,265.369C490.55,268.534 499.314,274.901 501.658,276.604C502.008,276.859 502.155,277.31 502.021,277.722C501.126,280.478 497.778,290.78 496.114,295.9C495.981,296.312 496.127,296.764 496.478,297.018C496.828,297.273 497.303,297.273 497.653,297.018C502.009,293.854 510.773,287.487 513.117,285.784C513.467,285.529 513.942,285.529 514.292,285.784L529.289,296.68L529.59,297.605C529.724,298.017 529.577,298.468 529.227,298.723C528.876,298.977 528.402,298.977 528.051,298.723C523.695,295.558 514.932,289.191 512.588,287.488C512.237,287.233 511.763,287.233 511.412,287.488C509.068,289.191 500.305,295.558 495.949,298.723C495.598,298.977 495.124,298.977 494.773,298.723C494.423,298.468 494.276,298.017 494.41,297.605C496.074,292.484 499.421,282.182 500.317,279.426C500.45,279.014 500.304,278.563 499.953,278.308C497.609,276.605 488.846,270.238 484.49,267.074C484.139,266.819 483.993,266.368 484.127,265.956C484.26,265.544 484.644,265.265 485.078,265.265L486.072,265.265ZM505.472,263.56L511.049,246.395C511.183,245.983 511.567,245.704 512,245.704C512.14,245.704 512.275,245.733 512.397,245.787L506.847,262.869C506.713,263.281 506.329,263.56 505.896,263.56L505.472,263.56Z" style="fill:rgb(218,74,84);"/></g></g></g></svg>