<?xml version="1.0" encoding="utf-8"?>
<!-- Generator: Adobe Illustrator 23.0.5, SVG Export Plug-In . SVG Version: 6.00 Build 0)  -->
<svg version="1.1" id="Capa_1" xmlns="http://www.w3.org/2000/svg" xmlns:xlink="http://www.w3.org/1999/xlink" x="0px" y="0px"
	 viewBox="0 0 96 96" style="enable-background:new 0 0 96 96;" xml:space="preserve">
<style type="text/css">
	.st0{fill:url(#SVGID_1_);}
	.st1{fill-rule:evenodd;clip-rule:evenodd;fill:url(#SVGID_2_);}
</style>
<g>
	<g>
		<g>
			<g>
				<linearGradient id="SVGID_1_" gradientUnits="userSpaceOnUse" x1="47.2853" y1="98.7132" x2="47.2853" y2="6.0367">
					<stop  offset="0" style="stop-color:#BBD532"/>
					<stop  offset="0.1033" style="stop-color:#C6C92E"/>
					<stop  offset="0.3192" style="stop-color:#DFAB26"/>
					<stop  offset="0.5228" style="stop-color:#F6871F"/>
					<stop  offset="0.7089" style="stop-color:#E77360"/>
					<stop  offset="1" style="stop-color:#D14B9B"/>
				</linearGradient>
				<path class="st0" d="M47.28,87.11c-22.04,0-39.97-17.93-39.97-39.97c0-22.04,17.93-39.97,39.97-39.97
					c22.04,0,39.97,17.93,39.97,39.97C87.26,69.18,69.32,87.11,47.28,87.11z M47.28,14.17c-18.18,0-32.97,14.79-32.97,32.97
					s14.79,32.97,32.97,32.97s32.97-14.79,32.97-32.97S65.46,14.17,47.28,14.17z"/>
			</g>
		</g>
		<linearGradient id="SVGID_2_" gradientUnits="userSpaceOnUse" x1="46.5271" y1="98.7132" x2="46.5271" y2="6.0368">
			<stop  offset="0" style="stop-color:#BBD532"/>
			<stop  offset="0.1033" style="stop-color:#C6C92E"/>
			<stop  offset="0.3192" style="stop-color:#DFAB26"/>
			<stop  offset="0.5228" style="stop-color:#F6871F"/>
			<stop  offset="0.7089" style="stop-color:#E77360"/>
			<stop  offset="1" style="stop-color:#D14B9B"/>
		</linearGradient>
		<path class="st1" d="M47.5,24.5c0,0,3.79,8.21-2.54,14.96c-1.02,1.09-2.09,1.99-3.17,2.79c-1.23-1.41-2.24-3.5-2.15-6.54
			c0,0-9.32,9.48-8.88,18.77l-0.01-0.47c0,0.16,0,0.3,0.01,0.47c0.31,6.54,7.51,11.64,16.09,11.4c7.27-0.2,13.2-4.19,14.63-9.38h0
			C61.48,56.5,67.39,42.72,47.5,24.5z"/>
	</g>
</g>
</svg>
