<?xml version="1.0" ?><!DOCTYPE svg  PUBLIC '-//W3C//DTD SVG 1.1//EN'  'http://www.w3.org/Graphics/SVG/1.1/DTD/svg11.dtd'><svg height="100%" style="fill-rule:evenodd;clip-rule:evenodd;stroke-linejoin:round;stroke-miterlimit:2;" version="1.1" viewBox="0 0 64 64" width="100%" xml:space="preserve" xmlns="http://www.w3.org/2000/svg" xmlns:serif="http://www.serif.com/" xmlns:xlink="http://www.w3.org/1999/xlink"><g transform="matrix(1,0,0,1,-160,-240)"><g id="tinder-apps-platform" transform="matrix(1,0,0,1,160,240)"><rect height="64" style="fill:none;" width="64" x="0" y="0"/><g transform="matrix(1,0,0,1,-161,-240.012)"><path d="M194.341,244.024C198.927,244.633 216,256.548 216,277C216,289.653 205.783,299.92 193.149,300L193,300C180.306,300 170,289.694 170,277C170,268.698 174.408,261.418 181.01,257.373C181.003,257.581 181,257.79 181,258C181,261.109 181.748,264.045 183.075,266.637C190.062,263.829 195,256.986 195,249C195,247.279 194.771,245.611 194.341,244.024Z" style="fill:rgb(221,99,110);"/></g><g transform="matrix(1,0,0,1,-160,-240)"><path d="M177.308,259.297C173.994,263.282 172,268.404 172,273.988C172,286.682 182.306,296.988 195,296.988L195.149,296.987C200.679,296.952 205.746,294.966 209.695,291.682C205.505,296.722 199.204,299.943 192.149,299.987L192,299.988C179.306,299.988 169,289.682 169,276.988C169,269.878 172.233,263.517 177.308,259.297ZM189.849,260.837C192.446,257.587 194,253.467 194,248.988C194,247.267 193.771,245.598 193.341,244.012C194.192,244.125 195.472,244.627 196.994,245.501C196.998,245.663 197,245.825 197,245.988C197,251.994 194.207,257.354 189.849,260.837Z" style="fill:rgb(218,74,84);"/></g><g transform="matrix(1,0,0,1,-161,-240.012)"><path d="M183.315,265.995C189.891,263.158 194.5,256.613 194.5,249C194.5,247.324 194.277,245.7 193.858,244.155C193.814,243.994 193.854,243.821 193.964,243.695C194.075,243.569 194.241,243.507 194.406,243.529C195.829,243.717 198.424,244.937 201.344,247.152C208.025,252.219 216.5,262.491 216.5,277C216.5,289.928 206.061,300.418 193.152,300.5L193,300.5C180.03,300.5 169.5,289.97 169.5,277C169.5,268.518 174.003,261.079 180.749,256.947C180.906,256.85 181.103,256.848 181.262,256.941C181.421,257.033 181.516,257.205 181.51,257.389C181.503,257.592 181.5,257.795 181.5,258C181.5,260.863 182.152,263.575 183.315,265.995ZM195.021,244.69C195.335,246.077 195.5,247.519 195.5,249C195.5,257.196 190.432,264.219 183.261,267.101C183.022,267.197 182.748,267.095 182.63,266.865C181.31,264.286 180.548,261.375 180.502,258.292C174.473,262.33 170.5,269.205 170.5,277C170.5,289.418 180.582,299.5 192.998,299.5C192.998,299.5 193.147,299.5 193.146,299.5C205.505,299.421 215.5,289.378 215.5,277C215.5,262.876 207.243,252.881 200.74,247.948C198.462,246.221 196.411,245.112 195.021,244.69Z"/></g></g></g></svg>